<?xml version="1.0" standalone="no"?>
<!DOCTYPE svg PUBLIC "-//W3C//DTD SVG 20010904//EN"
 "http://www.w3.org/TR/2001/REC-SVG-20010904/DTD/svg10.dtd">
<svg version="1.0" xmlns="http://www.w3.org/2000/svg"
 width="1448.000000pt" height="492.000000pt" viewBox="0 0 1448.000000 492.000000"
 preserveAspectRatio="xMidYMid meet">
<metadata>
Created by potrace 1.13, written by Peter Selinger 2001-2015
</metadata>
<g transform="translate(0.000000,492.000000) scale(0.100000,-0.100000)"
fill="#000000" stroke="none">
<path d="M1351 4295 c-100 -80 -185 -144 -190 -141 -5 3 -14 26 -21 51 -7 25
-15 45 -19 45 -13 0 -180 -130 -244 -189 -63 -59 -67 -62 -67 -37 0 14 -5 26
-11 26 -5 0 -63 -53 -128 -117 -224 -225 -350 -463 -409 -778 -13 -71 -16
-147 -16 -355 1 -146 5 -291 11 -323 10 -58 10 -59 -16 -68 -72 -28 -101 -89
-101 -210 0 -116 22 -169 85 -208 42 -26 43 -27 50 -95 9 -99 48 -242 91 -344
146 -339 399 -568 764 -692 l95 -32 33 -69 c32 -68 33 -71 21 -129 -13 -65 -8
-132 11 -155 24 -29 139 -19 248 21 53 20 114 45 134 55 l37 19 38 -26 c32
-22 46 -25 94 -22 37 3 66 12 87 27 l32 22 122 -52 c103 -44 135 -53 199 -57
71 -4 77 -3 93 19 19 27 22 114 5 172 -9 32 -7 43 11 71 11 19 26 50 33 70 12
35 18 39 101 67 450 151 753 497 840 958 9 46 16 98 16 116 0 27 5 35 30 45
42 17 87 72 101 122 17 63 7 184 -19 235 -23 44 -64 72 -110 77 -15 1 -26 7
-25 12 15 93 24 313 20 482 -6 238 -26 348 -97 523 -122 305 -361 569 -668
736 l-77 43 -5 -41 -5 -40 -112 83 c-61 46 -126 91 -142 101 l-31 18 0 -65 c0
-36 -2 -66 -5 -66 -16 0 -155 93 -231 154 l-90 73 -34 -93 c-19 -52 -37 -94
-41 -94 -3 0 -16 36 -29 80 -13 44 -25 80 -27 80 -3 0 -14 -12 -26 -26 -11
-15 -57 -54 -101 -87 l-81 -59 -6 38 c-4 22 -10 69 -14 107 -3 37 -10 67 -15
67 -4 0 -89 -65 -189 -145z m191 -1579 c53 -13 136 -43 184 -65 l86 -41 74 35
c146 69 350 113 474 101 159 -14 275 -78 368 -202 150 -199 130 -410 -57 -607
l-69 -72 59 -54 c33 -29 72 -76 87 -105 23 -44 27 -63 27 -142 0 -86 -2 -94
-42 -176 -62 -124 -153 -209 -305 -282 -189 -91 -358 -126 -618 -126 -460 0
-804 158 -927 426 -31 68 -42 183 -24 250 16 59 68 132 122 171 l48 34 -55 56
c-165 164 -215 358 -137 524 75 160 202 263 368 299 67 15 231 3 337 -24z
m-1203 -376 c41 -42 48 -86 22 -145 -25 -58 -25 -55 -1 -55 18 0 17 -5 -13
-70 -29 -62 -35 -69 -56 -65 -74 18 -111 80 -111 189 0 41 5 87 11 103 29 77
94 96 148 43z m3096 4 c48 -52 58 -198 18 -266 -20 -34 -56 -63 -89 -73 -19
-5 -26 3 -53 61 -17 36 -31 68 -31 70 0 2 9 4 20 4 25 0 25 2 0 42 -12 20 -20
51 -20 77 0 36 6 49 34 77 43 43 86 46 121 8z m-1891 -1455 l125 -42 3 -115 3
-115 -51 -23 c-100 -44 -229 -85 -259 -82 -26 3 -30 8 -33 34 -2 18 4 59 13
93 15 60 15 61 -9 98 -34 51 -56 117 -56 166 l0 40 70 -6 c42 -3 119 -23 194
-48z m840 35 c13 -35 -21 -139 -68 -205 -12 -17 -12 -27 0 -66 8 -25 14 -68
14 -95 0 -46 -1 -48 -28 -48 -34 0 -106 24 -222 74 l-85 36 1 113 1 112 74 28
c164 62 300 85 313 51z m-480 -60 c25 -25 26 -32 26 -129 0 -97 -1 -104 -26
-129 -36 -35 -101 -36 -141 -2 -27 24 -28 26 -28 131 0 105 1 107 28 131 40
34 105 33 141 -2z"/>
<path d="M1286 2299 c-55 -44 -74 -125 -42 -187 22 -43 53 -62 101 -62 84 0
142 70 132 159 -10 93 -121 145 -191 90z"/>
<path d="M2218 2300 c-36 -28 -51 -72 -45 -127 4 -39 12 -54 46 -85 35 -33 47
-38 87 -38 39 0 51 5 80 34 30 30 34 40 34 88 0 59 -20 99 -66 129 -38 25
-104 25 -136 -1z"/>
<path d="M1069 1635 c-37 -20 -55 -67 -42 -108 l11 -32 7 33 c4 17 8 32 9 32
2 0 40 -25 86 -55 176 -116 408 -175 690 -175 286 0 523 63 709 189 l61 42 6
-30 c9 -42 24 -29 24 20 0 31 -7 47 -29 70 -34 33 -77 43 -48 11 22 -24 21
-30 -5 -53 -85 -72 -234 -137 -402 -177 -100 -23 -131 -26 -311 -26 -153 -1
-221 4 -289 17 -165 34 -348 111 -436 185 -35 30 -35 30 -16 51 22 24 12 26
-25 6z"/>
<path d="M7482 3599 c-566 -76 -979 -451 -1093 -992 -31 -145 -31 -399 0 -544
108 -509 467 -861 994 -975 137 -29 435 -32 572 -5 373 74 652 254 842 542
269 407 269 1013 0 1420 -186 282 -464 465 -817 536 -112 23 -387 33 -498 18z
m378 -574 c316 -82 503 -363 487 -729 -14 -328 -197 -573 -488 -652 -86 -24
-261 -24 -349 -1 -183 48 -336 172 -418 339 -61 122 -86 248 -78 393 10 197
69 345 186 468 101 107 229 175 370 197 75 12 213 5 290 -15z"/>
<path d="M13040 3596 c-443 -64 -793 -302 -978 -664 -97 -189 -136 -359 -136
-597 0 -232 38 -403 131 -591 166 -339 510 -584 923 -661 132 -24 428 -24 560
0 270 50 518 177 730 375 l80 74 0 494 0 494 -595 0 -595 0 0 -280 0 -280 280
0 280 0 0 -95 0 -95 -47 -30 c-118 -75 -326 -127 -461 -116 -182 15 -308 72
-433 196 -70 69 -94 101 -128 170 -62 127 -76 193 -75 345 0 152 15 219 75
342 84 170 241 298 429 349 100 27 256 25 348 -5 124 -40 245 -130 318 -236
l37 -55 61 34 c34 18 150 79 258 135 109 57 200 107 204 112 10 17 -109 182
-191 264 -159 159 -357 264 -585 310 -107 22 -373 28 -490 11z"/>
<path d="M4230 2335 l0 -1235 315 0 315 0 0 358 0 358 81 99 c44 55 84 101 88
103 4 1 151 -204 327 -457 l319 -460 393 -1 394 0 -34 42 c-18 23 -245 319
-505 657 -406 529 -470 617 -459 631 81 94 936 1131 936 1135 0 3 -175 5 -389
5 l-389 0 -379 -507 -378 -506 -3 506 -2 507 -315 0 -315 0 0 -1235z"/>
<path d="M9320 2335 l0 -1235 315 0 315 0 0 711 c0 419 4 708 9 705 5 -3 240
-323 522 -711 l514 -705 307 0 308 0 0 1235 0 1235 -320 0 -320 0 -2 -676 -3
-675 -495 675 -495 676 -327 0 -328 0 0 -1235z"/>
</g>
</svg>
